<?xml version="1.0" encoding="utf-8"?>
<?xml-stylesheet type="text/css" href="test.css" ?>
<!-- Generator: Adobe Illustrator 12.0.0, SVG Export Plug-In . SVG Version: 6.00 Build 51448)  -->
<!DOCTYPE svg PUBLIC "-//W3C//DTD SVG 1.1//EN" "http://www.w3.org/Graphics/SVG/1.1/DTD/svg11.dtd" [
	<!ENTITY ns_svg "http://www.w3.org/2000/svg">
	<!ENTITY ns_xlink "http://www.w3.org/1999/xlink">
]>


<svg  id="sh" version="1.1" xmlns="&ns_svg;" xmlns:xlink="&ns_xlink;" preserveAspectRatio="xMinYMin meet" viewBox="0 0 332.524 300.488"
	 overflow="visible" enable-background="new 0 0 332.524 300.488" xml:space="preserve">
	<defs>
<style type="text/css"><![CDATA[
@keyframes hideshow {
  0% { opacity:1 }
  10% {  opacity:1; }
  85% {  opacity:1 }
  100% {  opacity:0 }
}

@-webkit-keyframes hideshow {
  0% { opacity:1 }
  10% {  opacity:1; }
  95% {  opacity:1 }
  100% {  opacity:0 }
}

#ull {
-webkit-animation: hideshow 3s linear 0.5s infinite;
animation: hideshow 3s linear 1s infinite;
}
]]></style>
</defs> 
	 
<g id="Layer_1">
</g>
<g id="Layer_2">
	<linearGradient id="XMLID_31_" gradientUnits="userSpaceOnUse" x1="287.0659" y1="141.3682" x2="287.0659" y2="23.7686">
		<stop  offset="0.0048" style="stop-color:#145322"/>
		<stop  offset="0.8894" style="stop-color:#36922D"/>
	</linearGradient>
	<path fill-rule="evenodd" clip-rule="evenodd" fill="url(#XMLID_31_)" d="M263.345,23.769c0,0,58.736,44.006,30.602,99.118
		l-4.441,18.481c0,0,39.121-41.042,11.281-84.241c0,0-9.941-14.469-16.986-19.668C271.978,28.732,263.345,23.769,263.345,23.769z"/>
	<linearGradient id="XMLID_32_" gradientUnits="userSpaceOnUse" x1="54.1396" y1="150.498" x2="54.1396" y2="18.4282">
		<stop  offset="0.0144" style="stop-color:#145322"/>
		<stop  offset="0.8942" style="stop-color:#36922D"/>
	</linearGradient>
	<path fill-rule="evenodd" clip-rule="evenodd" fill="url(#XMLID_32_)" d="M54.994,150.498c-11.937-6.54-21.235-13.102-27.4-19.956
		c-20.981-23.329-13.86-47.575-13.86-47.575c3.535-15.357,9.672-21.244,16.952-29.578c25.502-29.193,65.023-34.961,65.023-34.961
		s-25.186,7.367-47.218,28.336C38.396,56.372,28.048,67.747,22.713,84.51c0,0-10.927,28.252,30.362,57.441L54.994,150.498z"/>
	<g>
		<linearGradient id="XMLID_33_" gradientUnits="userSpaceOnUse" x1="53.332" y1="21.2495" x2="86.6099" y2="21.2495">
			<stop  offset="0.0048" style="stop-color:#66AF2A"/>
			<stop  offset="0.9952" style="stop-color:#00872E"/>
		</linearGradient>
		
		
		
		<path id="test" fill-rule="evenodd" clip-rule="evenodd" fill="url(#XMLID_33_)" stroke="#247A2C" d="M53.332,35.27
			c0,0,4.096-21.369,33.278-28.04C86.61,7.229,79.998,22.253,53.332,35.27z">
			
		
	
		</path>	
		<linearGradient id="XMLID_34_" gradientUnits="userSpaceOnUse" x1="54.9692" y1="34.3252" x2="97.2495" y2="34.3252">
			<stop  offset="0.0048" style="stop-color:#66AF2A"/>
			<stop  offset="0.9952" style="stop-color:#00872E"/>
		</linearGradient>
		<path fill-rule="evenodd" clip-rule="evenodd" fill="url(#XMLID_34_)" stroke="#247A2C" d="M54.969,38.782
			c0,0,16.278-14.122,42.28-8.843C97.25,29.939,67.506,43.85,54.969,38.782z"/>
		<linearGradient id="XMLID_35_" gradientUnits="userSpaceOnUse" x1="34.501" y1="33.8276" x2="54.7124" y2="33.8276">
			<stop  offset="0.0048" style="stop-color:#66AF2A"/>
			<stop  offset="0.9952" style="stop-color:#00872E"/>
		</linearGradient>
		<path fill-rule="evenodd" clip-rule="evenodd" fill="url(#XMLID_35_)" stroke="#247A2C" d="M34.73,50.721
			c0,0-3.85-21.647,19.982-33.786C54.712,16.935,52.894,40.34,34.73,50.721z"/>
		<linearGradient id="XMLID_36_" gradientUnits="userSpaceOnUse" x1="36.4482" y1="49.2764" x2="73.4692" y2="49.2764">
			<stop  offset="0.0048" style="stop-color:#66AF2A"/>
			<stop  offset="0.9952" style="stop-color:#00872E"/>
		</linearGradient>
		<path fill-rule="evenodd" clip-rule="evenodd" fill="url(#XMLID_36_)" stroke="#247A2C" d="M36.448,55.67
			c0,0,16.62-16.541,37.021-12.633C73.469,43.037,55.372,58.939,36.448,55.67z"/>
		<linearGradient id="XMLID_37_" gradientUnits="userSpaceOnUse" x1="17.8169" y1="54.6592" x2="30.6738" y2="54.6592">
			<stop  offset="0.0048" style="stop-color:#66AF2A"/>
			<stop  offset="0.9952" style="stop-color:#00872E"/>
		</linearGradient>
		<path fill-rule="evenodd" clip-rule="evenodd" fill="url(#XMLID_37_)" stroke="#247A2C" d="M18.846,76.109
			c0,0-6.02-26.094,11.064-42.9C29.91,33.209,35.011,55.75,18.846,76.109z"/>
		<linearGradient id="XMLID_38_" gradientUnits="userSpaceOnUse" x1="20.4829" y1="68.5947" x2="58.4219" y2="68.5947">
			<stop  offset="0.0048" style="stop-color:#66AF2A"/>
			<stop  offset="0.9952" style="stop-color:#00872E"/>
		</linearGradient>
		<path fill-rule="evenodd" clip-rule="evenodd" fill="url(#XMLID_38_)" stroke="#247A2C" d="M20.483,79.622
			c0,0,6.264-21.251,37.939-22.055C58.422,57.567,37.729,78.661,20.483,79.622z"/>
		<linearGradient id="XMLID_39_" gradientUnits="userSpaceOnUse" x1="5.2886" y1="85.3291" x2="17.6685" y2="85.3291">
			<stop  offset="0.0048" style="stop-color:#66AF2A"/>
			<stop  offset="0.9952" style="stop-color:#00872E"/>
		</linearGradient>
		<path fill-rule="evenodd" clip-rule="evenodd" fill="url(#XMLID_39_)" stroke="#247A2C" d="M17.652,106.445
			c0,0-23.907-27.982-5.234-42.232c0,0-0.283,7.908,1.058,14.423C14.886,85.479,17.916,91.292,17.652,106.445z"/>
		<linearGradient id="XMLID_40_" gradientUnits="userSpaceOnUse" x1="19.3369" y1="101.6543" x2="28.271" y2="101.6543">
			<stop  offset="0.0048" style="stop-color:#1E732B"/>
			<stop  offset="0.9952" style="stop-color:#00872E"/>
		</linearGradient>
		<path fill-rule="evenodd" clip-rule="evenodd" fill="url(#XMLID_40_)" stroke="#247A2C" d="M25.479,117.541
			c0,0-14.534-15.046,1.113-31.773C26.592,85.768,31.028,113.629,25.479,117.541z"/>
		<linearGradient id="XMLID_41_" gradientUnits="userSpaceOnUse" x1="3.6792" y1="114.4653" x2="28.1953" y2="114.4653">
			<stop  offset="0.0048" style="stop-color:#1E732B"/>
			<stop  offset="0.9952" style="stop-color:#00872E"/>
		</linearGradient>
		<path fill-rule="evenodd" clip-rule="evenodd" fill="url(#XMLID_41_)" stroke="#247A2C" d="M28.195,127.479
			c0,0-15.174-26.542-24.516-26.021C3.679,101.459,7.276,127.203,28.195,127.479z"/>
		<linearGradient id="XMLID_42_" gradientUnits="userSpaceOnUse" x1="31.0635" y1="122.9868" x2="48.1069" y2="122.9868">
			<stop  offset="0.0048" style="stop-color:#0A5825"/>
			<stop  offset="0.9952" style="stop-color:#00872E"/>
		</linearGradient>
		<path fill-rule="evenodd" clip-rule="evenodd" fill="url(#XMLID_42_)" stroke="#247A2C" d="M43.966,138.853
			c0,0-15.292-15.724-12.581-31.731C31.386,107.121,58.138,134.459,43.966,138.853z"/>
		<linearGradient id="XMLID_43_" gradientUnits="userSpaceOnUse" x1="16.8579" y1="136.6123" x2="44.0464" y2="136.6123">
			<stop  offset="0.0048" style="stop-color:#0A5825"/>
			<stop  offset="0.9952" style="stop-color:#00872E"/>
		</linearGradient>
		<path fill-rule="evenodd" clip-rule="evenodd" fill="url(#XMLID_43_)" stroke="#247A2C" d="M44.046,140.29
			c0,0-9.264-11.016-27.188-9.296C16.858,130.994,29.356,148.315,44.046,140.29z"/>
		<linearGradient id="XMLID_44_" gradientUnits="userSpaceOnUse" x1="251.106" y1="27.5078" x2="281.8257" y2="27.5078">
			<stop  offset="0.0048" style="stop-color:#66AF2A"/>
			<stop  offset="0.9952" style="stop-color:#00872E"/>
		</linearGradient>
		<path fill-rule="evenodd" clip-rule="evenodd" fill="url(#XMLID_44_)" stroke="#247A2C" d="M281.826,38.648
			c0,0-20.16-2.881-30.72-22.08C251.106,16.568,272.226,12.729,281.826,38.648z"/>
		<linearGradient id="XMLID_45_" gradientUnits="userSpaceOnUse" x1="280.6069" y1="34.8081" x2="301.1782" y2="34.8081">
			<stop  offset="0.0048" style="stop-color:#66AF2A"/>
			<stop  offset="0.9952" style="stop-color:#00872E"/>
		</linearGradient>
		<path fill-rule="evenodd" clip-rule="evenodd" fill="url(#XMLID_45_)" stroke="#247A2C" d="M300.066,54.968
			c0,0-22.08-15.36-19.2-40.319C280.866,14.648,306.786,41.527,300.066,54.968z"/>
		<linearGradient id="XMLID_46_" gradientUnits="userSpaceOnUse" x1="256.8657" y1="47.6924" x2="297.186" y2="47.6924">
			<stop  offset="0.0048" style="stop-color:#66AF2A"/>
			<stop  offset="0.9952" style="stop-color:#00872E"/>
		</linearGradient>
		<path fill-rule="evenodd" clip-rule="evenodd" fill="url(#XMLID_46_)" stroke="#247A2C" d="M297.186,57.848
			c0,0-23.04-20.16-40.32-21.119C256.866,36.729,275.106,63.607,297.186,57.848z"/>
		<linearGradient id="XMLID_47_" gradientUnits="userSpaceOnUse" x1="304.3979" y1="67.4473" x2="316.6646" y2="67.4473">
			<stop  offset="0.0048" style="stop-color:#66AF2A"/>
			<stop  offset="0.9952" style="stop-color:#00872E"/>
		</linearGradient>
		<path fill-rule="evenodd" clip-rule="evenodd" fill="url(#XMLID_47_)" stroke="#247A2C" d="M309.666,89.527
			c0,0-9.6-29.76-2.88-44.16C306.786,45.367,326.946,85.688,309.666,89.527z"/>
		<linearGradient id="XMLID_48_" gradientUnits="userSpaceOnUse" x1="280.8657" y1="76.5684" x2="305.8257" y2="76.5684">
			<stop  offset="0.0048" style="stop-color:#66AF2A"/>
			<stop  offset="0.9952" style="stop-color:#00872E"/>
		</linearGradient>
		<path fill-rule="evenodd" clip-rule="evenodd" fill="url(#XMLID_48_)" stroke="#247A2C" d="M305.826,92.408
			c0,0-5.76-27.84-24.96-31.68C280.866,60.729,288.545,89.527,305.826,92.408z"/>
		<linearGradient id="XMLID_49_" gradientUnits="userSpaceOnUse" x1="301.0259" y1="101.5283" x2="319.8716" y2="101.5283">
			<stop  offset="0.0048" style="stop-color:#66AF2A"/>
			<stop  offset="0.9952" style="stop-color:#00872E"/>
		</linearGradient>
		<path fill-rule="evenodd" clip-rule="evenodd" fill="url(#XMLID_49_)" stroke="#247A2C" d="M301.026,116.408
			c0,0,8.64-25.92,18.24-29.76C319.266,86.648,325.026,108.729,301.026,116.408z"/>
		<linearGradient id="XMLID_50_" gradientUnits="userSpaceOnUse" x1="289.9858" y1="127.0874" x2="311.5854" y2="127.0874">
			<stop  offset="0.0048" style="stop-color:#0A5B25"/>
			<stop  offset="0.9952" style="stop-color:#00872E"/>
		</linearGradient>
		<path fill-rule="evenodd" clip-rule="evenodd" fill="url(#XMLID_50_)" stroke="#247A2C" d="M289.986,136.808
			c0,0,3.12-14.88,21.6-19.44C311.585,117.367,307.266,135.367,289.986,136.808z"/>
	</g>
	<path d="M304.008,168.51c0.248,0.483,0.324,0.851,0.227,1.104c-0.061,0.156-0.414,0.511-1.062,1.063
		c-1.951,1.583-3.407,2.971-4.367,4.162s-1.743,2.575-2.351,4.151c-1.447,3.754-1.31,7.041,0.412,9.861
		c1.303,2.146,3.374,3.768,6.213,4.861c1.723,0.665,3.358,0.97,4.905,0.917c1.718-0.055,3.157-0.487,4.317-1.297
		c0.821-0.566,1.5-1.188,2.034-1.866s1.292-1.897,2.272-3.66l1.464-2.625c0.997-1.756,1.777-2.877,2.342-3.363
		c0.815-0.694,1.779-0.826,2.895-0.396c0.738,0.285,1.376,0.745,1.913,1.379c0.537,0.636,0.89,1.345,1.06,2.128
		c0.303,1.414,0.146,2.921-0.47,4.52c-0.565,1.466-1.508,2.884-2.826,4.253c-1.319,1.369-2.605,2.261-3.858,2.675
		c-0.822,0.276-1.603,0.273-2.341-0.012c-0.066-0.025-0.172-0.065-0.32-0.123l-0.546,0.39l7.212,5.845l0.571-0.381
		c-0.231-0.475-0.316-0.791-0.257-0.947c0.052-0.133,0.42-0.453,1.105-0.963c3.353-2.354,5.657-5.16,6.913-8.419
		c0.699-1.815,1.052-3.634,1.058-5.455c0.017-2.438-0.616-4.483-1.899-6.139c-1.405-1.825-3.288-3.193-5.648-4.104
		c-1.492-0.574-2.985-0.877-4.48-0.908c-1.494-0.03-2.801,0.208-3.919,0.716c-1.081,0.509-2.035,1.201-2.863,2.077
		c-0.826,0.876-1.688,2.108-2.583,3.696l-1.484,2.681c-0.994,1.799-1.718,2.942-2.17,3.431c-0.891,0.941-1.967,1.169-3.229,0.682
		c-0.771-0.297-1.399-0.791-1.887-1.483c-0.485-0.692-0.757-1.457-0.812-2.294c-0.05-1.139,0.171-2.347,0.662-3.623
		c1.113-2.887,3.1-5.01,5.959-6.367c0.909-0.451,1.643-0.569,2.2-0.354c0.099,0.038,0.228,0.095,0.387,0.171l0.588-0.354
		l-6.771-5.989L304.008,168.51z"/>
	<path fill-rule="evenodd" clip-rule="evenodd" d="M307.024,116.394l-37.128-5.415L169.34,8.877l48.73-2.321
		c0,0,73.483,95.142,79.671,97.462C303.93,106.338,307.024,116.394,307.024,116.394z"/>
	<linearGradient id="XMLID_51_" gradientUnits="userSpaceOnUse" x1="165.21" y1="246.832" x2="165.2099" y2="9.3286">
		<stop  offset="0.0056" style="stop-color:#A69028"/>
		<stop  offset="1" style="stop-color:#DCBE38"/>
	</linearGradient>
	<path fill-rule="evenodd" clip-rule="evenodd" fill="url(#XMLID_51_)" d="M165.21,9.328c65.584,0,118.751,53.167,118.751,118.752
		S230.794,246.832,165.21,246.832c-65.585,0-118.752-53.167-118.752-118.752S99.625,9.328,165.21,9.328z"/>
	<radialGradient id="XMLID_52_" cx="155.4775" cy="91.9736" r="173.1989" gradientUnits="userSpaceOnUse">
		<stop  offset="0.1274" style="stop-color:#FAF6C2"/>
		<stop  offset="0.4387" style="stop-color:#F6E842"/>
		<stop  offset="0.7406" style="stop-color:#EFD041"/>
		<stop  offset="0.9953" style="stop-color:#BA8C19"/>
	</radialGradient>
	<path fill-rule="evenodd" clip-rule="evenodd" fill="url(#XMLID_52_)" d="M167.549,15.805c63.499,0,114.974,51.477,114.974,114.975
		s-51.476,114.974-114.974,114.974c-63.498,0-114.974-51.476-114.974-114.974S104.051,15.805,167.549,15.805z"/>
	<linearGradient id="XMLID_53_" gradientUnits="userSpaceOnUse" x1="169.2661" y1="25.3301" x2="169.2661" y2="198.3975">
		<stop  offset="0" style="stop-color:#FAF9F9"/>
		<stop  offset="0.9953" style="stop-color:#F4D840"/>
	</linearGradient>
	<path fill-rule="evenodd" clip-rule="evenodd" fill="url(#XMLID_53_)" fill-opacity="0.52" d="M169.266,25.33
		c47.792,0,86.534,38.742,86.534,86.533c0,47.792-38.742,86.534-86.534,86.534c-47.791,0-86.534-38.742-86.534-86.534
		C82.732,64.072,121.475,25.33,169.266,25.33z"/>
	<linearGradient id="XMLID_54_" gradientUnits="userSpaceOnUse" x1="180.2676" y1="117.6973" x2="180.2676" y2="2.8984">
		<stop  offset="0.0056" style="stop-color:#7D1418"/>
		<stop  offset="1" style="stop-color:#E32121"/>
	</linearGradient>
	<path fill-rule="evenodd" clip-rule="evenodd" fill="url(#XMLID_54_)" d="M156.492,3.478
		c-36.533,58.56-115.979,114.22-115.979,114.22l23.776-0.578c63.208-39.427,98.002-105.523,98.002-105.523h52.77
		c0,0,70.167,93.927,93.363,104.943l11.598-0.58c0,0-60.889-51.602-100.901-113.061L156.492,3.478z"/>
	<linearGradient id="XMLID_55_" gradientUnits="userSpaceOnUse" x1="80.8154" y1="118.2783" x2="80.8154" y2="1.136868e-013">
		<stop  offset="0.0056" style="stop-color:#AF111E"/>
		<stop  offset="1" style="stop-color:#E64443"/>
	</linearGradient>
	<path fill-rule="evenodd" clip-rule="evenodd" fill="url(#XMLID_55_)" d="M41.093,118.278L4.56,100.885
		c0,0,37.609-22.223,65.952-49.549C93.408,29.261,116.328,10.533,118.219,0l38.853,2.898
		C157.072,2.898,110.101,84.07,41.093,118.278z"/>
	<path fill-rule="evenodd" clip-rule="evenodd" fill="#ED7D80" d="M118.799,0h65.528l34.794,2.898l-60.889,2.319L118.799,0z"/>
	<radialGradient id="XMLID_56_" cx="104.2261" cy="161.0479" r="18.7261" gradientUnits="userSpaceOnUse">
		<stop  offset="0.3365" style="stop-color:#EC7016"/>
		<stop  offset="0.875" style="stop-color:#F5DB40"/>
	</radialGradient>
	<path opacity="0.44" fill-rule="evenodd" clip-rule="evenodd" fill="url(#XMLID_56_)" d="M104.226,141.848
		c10.074,0,18.24,8.597,18.24,19.2s-8.167,19.2-18.24,19.2s-18.24-8.597-18.24-19.2S94.152,141.848,104.226,141.848z"/>
	<radialGradient id="XMLID_57_" cx="272.2222" cy="170.0977" r="10.2474" gradientUnits="userSpaceOnUse">
		<stop  offset="0.1683" style="stop-color:#CD752D"/>
		<stop  offset="0.875" style="stop-color:#E2C038"/>
	</radialGradient>
	<path opacity="0.31" fill-rule="evenodd" clip-rule="evenodd" fill="url(#XMLID_57_)" d="M273.531,175.688
		c-1.474,3.325-2.292,5.875-2.292,5.875c-10.667,0-7.413-29.182-7.413-14.515c0,5.083,1.83-3.86,4.83-5.235
		c3.558-1.631,6.068-2.75,7.875-2.75c3.194,0,5.592-1.688,4.104,1.616c-0.21,0.466-2.23,0.952-2.604,1.634
		C277.89,162.569,275.982,170.156,273.531,175.688z"/>
	<linearGradient id="XMLID_58_" gradientUnits="userSpaceOnUse" x1="73.731" y1="18.6519" x2="116.2061" y2="18.6519">
		<stop  offset="0.0048" style="stop-color:#66AF2A"/>
		<stop  offset="0.9952" style="stop-color:#00872E"/>
	</linearGradient>
	<path fill-rule="evenodd" clip-rule="evenodd" fill="url(#XMLID_58_)" stroke="#247A2C" d="M73.731,26.205
		c0,0,18.321-20.479,42.475-13.897C116.206,12.308,99.761,27.639,73.731,26.205z"/>
	<path fill-rule="evenodd" clip-rule="evenodd" fill="#5A4D1A" d="M243.906,184.328c0,0-14.4,30-49.44,26.399
		c-15.25-1.566-22.989-7.03-29.035-12.974c-7.845-7.712-11.525-16.066-11.525-16.066s-1.835-5.872-6.72-2.88
		c-3.141,1.925-0.48,5.28-0.48,5.28s10.56,23.04,36.24,29.28c25.681,6.239,45.721-5.425,55.92-18.48c8-10.24,6.96-11.52,6.96-11.52
		s0.189-0.383,0.173-0.713c-0.018-0.362-0.266-0.662-0.893-0.327C244.537,182.632,243.906,184.328,243.906,184.328z"/>
	<path fill-rule="evenodd" clip-rule="evenodd" fill="#A48823" d="M138.066,80.048c0,0,21.829-9.655,33.12-7.08
		c2.625,0.599,3.496,0.968,4.582,0.683c2.614-0.687,2.018-3.442,2.018-3.442s-1.68-7.2-11.88-4.681
		C155.706,68.048,143.826,75.367,138.066,80.048z"/>
	<path fill-rule="evenodd" clip-rule="evenodd" fill="#A48823" d="M264.066,89.048c0,0-7.32-10.2-15.72-16.681
		c-8.4-6.479-13.44-4.199-14.641-1.559c-1.2,2.639,1.32,4.079,2.4,3.959c1.08-0.119,6.479-0.359,13.8,4.44
		S259.986,85.928,264.066,89.048z"/>
	
	<g height="100">
	<path id="ull" fill-rule="evenodd" clip-rule="evenodd" fill="#5A4D1A" d="M171.688,95.775c7.714,0,13.969,14.672,13.969,32.77
		s-6.254,32.769-13.969,32.769c-7.715,0-13.969-14.671-13.969-32.769S163.974,95.775,171.688,95.775z">
		
		</path>
		<animateTransform attributeName="transform"
                    type="scale"
                    from="1 1" to="1 1"
                    begin="0s" dur="6s"
                    repeatCount="1"
          />
		
	</g>
		
		
	<path fill-rule="evenodd" clip-rule="evenodd" fill="#5A4D1A" d="M237.974,95.594c7.726,0,13.988,14.691,13.988,32.813
		c0,18.123-6.263,32.813-13.988,32.813s-13.988-14.69-13.988-32.813C223.986,110.285,230.249,95.594,237.974,95.594z"/>
	<path fill-rule="evenodd" clip-rule="evenodd" fill="#FCFCFC" d="M227.946,119.048c0,0,7.2-16.92,13.56-15.36
		C241.505,103.688,234.066,93.248,227.946,119.048z"/>
	<path fill-rule="evenodd" clip-rule="evenodd" fill="#FCFCFC" d="M159.306,119.288c0,0,7.2-16.921,13.56-15.36
		C172.866,103.928,165.426,93.488,159.306,119.288z"/>
	<path fill="#761416" d="M302.968,168.27c0.248,0.483,0.324,0.852,0.227,1.104c-0.061,0.157-0.414,0.511-1.062,1.063
		c-1.951,1.583-3.407,2.971-4.367,4.162c-0.96,1.192-1.743,2.575-2.351,4.151c-1.447,3.755-1.31,7.041,0.412,9.861
		c1.303,2.146,3.374,3.768,6.213,4.862c1.723,0.664,3.358,0.97,4.905,0.916c1.718-0.055,3.157-0.487,4.317-1.297
		c0.822-0.566,1.5-1.188,2.034-1.866s1.292-1.897,2.272-3.659l1.464-2.626c0.997-1.755,1.777-2.877,2.342-3.363
		c0.815-0.693,1.779-0.826,2.895-0.396c0.738,0.284,1.376,0.744,1.913,1.379s0.89,1.344,1.06,2.127
		c0.303,1.415,0.146,2.921-0.47,4.52c-0.565,1.467-1.508,2.885-2.826,4.253c-1.319,1.369-2.605,2.261-3.858,2.675
		c-0.822,0.277-1.603,0.273-2.341-0.011c-0.066-0.025-0.172-0.066-0.32-0.124l-0.546,0.391l7.212,5.844l0.571-0.381
		c-0.231-0.475-0.316-0.791-0.257-0.947c0.052-0.132,0.42-0.453,1.105-0.963c3.353-2.354,5.657-5.159,6.913-8.418
		c0.699-1.816,1.052-3.635,1.058-5.456c0.017-2.438-0.616-4.483-1.899-6.139c-1.405-1.825-3.288-3.193-5.648-4.104
		c-1.491-0.574-2.985-0.877-4.479-0.908c-1.495-0.03-2.802,0.208-3.92,0.717c-1.081,0.508-2.035,1.2-2.863,2.076
		c-0.826,0.876-1.688,2.108-2.582,3.696l-1.485,2.681c-0.994,1.799-1.718,2.942-2.17,3.432c-0.891,0.94-1.967,1.168-3.229,0.682
		c-0.771-0.297-1.399-0.792-1.887-1.484c-0.485-0.692-0.757-1.457-0.812-2.293c-0.05-1.14,0.171-2.348,0.662-3.623
		c1.113-2.888,3.1-5.011,5.959-6.368c0.909-0.45,1.643-0.568,2.2-0.354c0.099,0.037,0.228,0.094,0.387,0.17l0.588-0.354
		l-6.771-5.989L302.968,168.27z"/>
	<path d="M38.063,189.408c-0.508-0.193-0.811-0.417-0.906-0.67c-0.06-0.156-0.032-0.656,0.084-1.499
		c0.402-2.482,0.564-4.486,0.487-6.014c-0.078-1.528-0.415-3.081-1.013-4.659c-1.422-3.754-3.715-6.105-6.878-7.055
		c-2.403-0.727-5.028-0.551-7.875,0.527c-1.729,0.654-3.152,1.518-4.271,2.588c-1.245,1.188-2.03,2.469-2.355,3.846
		c-0.235,0.97-0.327,1.885-0.273,2.746c0.053,0.861,0.302,2.274,0.745,4.241l0.662,2.93c0.429,1.972,0.596,3.327,0.502,4.064
		c-0.141,1.059-0.768,1.799-1.879,2.22c-0.736,0.278-1.513,0.359-2.333,0.243s-1.552-0.41-2.198-0.882
		c-1.165-0.853-2.049-2.079-2.656-3.681c-0.557-1.469-0.8-3.152-0.729-5.051c0.07-1.899,0.433-3.421,1.09-4.564
		c0.428-0.754,1.013-1.271,1.752-1.552c0.066-0.024,0.173-0.064,0.321-0.121l0.146-0.654l-9.274,0.457l-0.172,0.664
		c0.49,0.199,0.765,0.378,0.824,0.534c0.05,0.132-0.012,0.617-0.184,1.453c-0.937,3.989-0.788,7.615,0.449,10.878
		c0.688,1.818,1.637,3.407,2.847,4.766c1.611,1.827,3.446,2.929,5.504,3.306c2.263,0.423,4.576,0.187,6.94-0.708
		c1.493-0.566,2.807-1.336,3.94-2.309c1.133-0.974,1.947-2.022,2.441-3.146c0.466-1.1,0.715-2.251,0.748-3.454
		c0.032-1.204-0.148-2.695-0.54-4.475l-0.68-2.986c-0.458-2.002-0.682-3.336-0.672-4.001c0.035-1.294,0.684-2.181,1.947-2.659
		c0.771-0.291,1.567-0.342,2.39-0.151c0.822,0.191,1.532,0.579,2.129,1.166c0.795,0.813,1.435,1.858,1.918,3.134
		c1.096,2.893,1.031,5.797-0.195,8.714c-0.376,0.941-0.843,1.519-1.402,1.73c-0.099,0.037-0.233,0.081-0.402,0.131l-0.203,0.655
		l9.044-0.056L38.063,189.408z"/>
	<path d="M47.234,219.975l-18.287,12.338c-0.451,0.304-0.849,0.46-1.192,0.468c-0.344,0.008-0.707-0.13-1.088-0.413l-0.69,0.465
		l4.595,6.811l0.69-0.466c-0.113-0.48-0.103-0.875,0.03-1.181s0.425-0.611,0.877-0.916l25.271-17.05
		c0.437-0.295,0.822-0.447,1.156-0.455c0.334-0.009,0.702,0.129,1.106,0.413l0.69-0.466l-5.571-8.257l-0.69,0.467
		c0.287,0.582,0.132,1.075-0.465,1.479c-0.307,0.206-0.885,0.402-1.734,0.588l-19.235,4.191L44.1,201.626
		c0.277-0.404,0.563-0.705,0.854-0.902c0.626-0.423,1.197-0.441,1.71-0.058l0.69-0.466l-5.686-8.428l-0.689,0.466
		c0.112,0.481,0.102,0.875-0.031,1.181s-0.418,0.606-0.855,0.901l-25.271,17.05c-0.452,0.305-0.844,0.461-1.178,0.47
		c-0.334,0.009-0.702-0.129-1.106-0.413l-0.69,0.466l4.332,6.42l0.69-0.466c-0.113-0.48-0.103-0.874,0.029-1.18
		s0.424-0.61,0.875-0.915l18.286-12.338l-15.134,21.934L47.234,219.975z"/>
	<path d="M40.829,247.768c-0.326,0.071-0.712,0.005-1.159-0.198l-0.6,0.593l5.778,5.851l0.6-0.593
		c-0.201-0.429-0.263-0.811-0.187-1.146c0.077-0.336,0.309-0.695,0.697-1.078l21.698-21.43c0.375-0.371,0.729-0.595,1.061-0.672
		c0.332-0.077,0.715-0.008,1.15,0.207l0.6-0.593l-5.778-5.85l-0.6,0.592c0.197,0.45,0.258,0.838,0.183,1.162
		c-0.075,0.325-0.3,0.673-0.675,1.043l-21.699,21.431C41.511,247.47,41.154,247.696,40.829,247.768z"/>
	<path d="M78.797,239.648c0.324-0.438,0.643-0.721,0.959-0.848s0.708-0.118,1.173,0.027l0.508-0.689l-6.63-4.886l-0.508,0.69
		c0.267,0.415,0.389,0.788,0.367,1.121s-0.195,0.718-0.518,1.156l-18.058,24.503c-0.324,0.438-0.641,0.717-0.952,0.838
		c-0.312,0.119-0.705,0.113-1.18-0.019l-0.509,0.689l18.694,13.777c0.322,0.236,0.493,0.515,0.514,0.834
		c0.021,0.319-0.103,0.771-0.372,1.353l0.51,0.376l5.505-7.47l-0.51-0.376c-0.477,0.43-0.871,0.682-1.182,0.757
		c-0.312,0.074-0.627-0.007-0.949-0.243l-13.054-9.621L78.797,239.648z"/>
	<path d="M101.936,273.341c0.343,0.176,0.549,0.423,0.617,0.744c0.067,0.319,0.018,0.781-0.146,1.387l0.558,0.285l4.131-8.076
		l-0.558-0.286c-0.402,0.504-0.75,0.817-1.045,0.941c-0.295,0.125-0.614,0.101-0.957-0.076l-9.513-4.865l3.891-7.607l14.681,7.51
		c0.343,0.176,0.55,0.422,0.62,0.738c0.07,0.314,0.02,0.779-0.148,1.392l0.558,0.286l4.236-8.282l-0.558-0.286
		c-0.398,0.496-0.746,0.808-1.043,0.937c-0.297,0.128-0.618,0.104-0.962-0.072L95.36,247.301l-0.39,0.765
		c0.338,0.37,0.524,0.723,0.56,1.056c0.035,0.334-0.072,0.742-0.32,1.228l-13.856,27.09c-0.248,0.484-0.517,0.812-0.808,0.978
		c-0.291,0.167-0.686,0.222-1.184,0.164l-0.391,0.764l21.346,10.918c0.344,0.176,0.552,0.42,0.625,0.732
		c0.072,0.313,0.021,0.779-0.151,1.399l0.558,0.285l4.236-8.282l-0.558-0.285c-0.402,0.503-0.751,0.816-1.046,0.941
		s-0.614,0.099-0.958-0.076l-15.092-7.72l4.492-8.782L101.936,273.341z"/>
	<path d="M146.233,270.842c1.024-1.211,1.793-2.007,2.308-2.387c0.514-0.381,1.065-0.559,1.654-0.534l0.182-0.811l-9.961-2.235
		l-0.182,0.81c0.371,0.174,0.637,0.428,0.8,0.761c0.163,0.334,0.2,0.698,0.111,1.093c-0.081,0.36-0.493,0.988-1.235,1.885
		l-6.87,8.35l-2.515-10.456c-0.281-1.162-0.386-1.897-0.316-2.206c0.196-0.875,0.736-1.312,1.621-1.312l0.182-0.811l-10.165-2.28
		l-0.182,0.81c0.542,0.229,0.964,0.627,1.267,1.189c0.303,0.563,0.658,1.612,1.066,3.145l4.727,17.843l-2.692,11.996
		c-0.12,0.532-0.306,0.914-0.558,1.146c-0.253,0.231-0.627,0.382-1.124,0.451l-0.182,0.81l8.07,1.812l0.182-0.811
		c-0.405-0.271-0.666-0.563-0.783-0.878c-0.117-0.314-0.116-0.738,0.004-1.271l2.692-11.995L146.233,270.842z"/>
	<path d="M174.121,283.861c-0.087,0.641-0.233,1.083-0.438,1.328c-0.206,0.246-0.513,0.373-0.921,0.381l-4.862,0.103
		c-0.396,0.008-0.705-0.11-0.927-0.355c-0.223-0.245-0.4-0.677-0.532-1.295l-0.63,0.014l0.19,9.09l0.63-0.014
		c0.103-0.615,0.257-1.051,0.464-1.31c0.207-0.258,0.502-0.391,0.888-0.399l4.737-0.1c0.398-0.008,0.702,0.108,0.913,0.349
		c0.211,0.241,0.387,0.676,0.528,1.303l0.63-0.014l-0.19-9.09L174.121,283.861z"/>
	<path d="M222.068,291.705c0.146,0.508,0.168,0.928,0.068,1.259c-0.102,0.331-0.35,0.636-0.742,0.914l0.232,0.81l7.95-2.287
		l-0.233-0.811c-0.498-0.039-0.875-0.169-1.127-0.39c-0.254-0.22-0.453-0.583-0.598-1.09l-8.437-29.32
		c-0.146-0.507-0.171-0.921-0.073-1.241s0.346-0.63,0.748-0.929l-0.233-0.81l-7.95,2.287l0.233,0.81
		c0.493,0.022,0.868,0.148,1.124,0.376c0.254,0.229,0.455,0.595,0.6,1.102l3.205,11.138l-14.609,4.203l-3.205-11.137
		c-0.146-0.507-0.171-0.924-0.076-1.253c0.096-0.329,0.346-0.634,0.752-0.916l-0.233-0.81l-7.95,2.287l0.233,0.811
		c0.499,0.04,0.874,0.17,1.127,0.39s0.452,0.583,0.598,1.09l8.437,29.32c0.146,0.508,0.169,0.921,0.072,1.241
		c-0.097,0.321-0.347,0.631-0.747,0.929l0.232,0.811l7.95-2.288l-0.233-0.81c-0.48-0.026-0.852-0.153-1.113-0.38
		s-0.466-0.594-0.612-1.102l-3.592-12.483l14.61-4.204L222.068,291.705z"/>
	<path d="M228.086,262.785c0.293,3.267,1.327,6.467,3.102,9.6c1.212,2.141,2.654,4.019,4.327,5.636
		c1.898,1.833,3.922,3.181,6.071,4.042c4.019,1.621,8.015,1.306,11.99-0.946c5.301-3.002,7.676-7.699,7.126-14.092
		c-0.281-3.272-1.271-6.407-2.968-9.403c-2.771-4.892-6.271-8.179-10.502-9.86c-4.019-1.621-8.033-1.296-12.042,0.975
		C229.898,251.855,227.53,256.538,228.086,262.785L228.086,262.785z M245.242,253.569c2.878,1.055,5.321,3.354,7.33,6.9
		c0.823,1.452,1.418,2.973,1.784,4.562c0.405,1.789,0.476,3.455,0.209,4.999c-0.443,2.593-1.77,4.515-3.979,5.767
		c-2.211,1.252-4.547,1.404-7.009,0.457c-2.914-1.116-5.331-3.37-7.253-6.764c-1.923-3.393-2.612-6.625-2.07-9.697
		c0.453-2.6,1.774-4.518,3.962-5.757C240.443,252.814,242.785,252.659,245.242,253.569L245.242,253.569z"/>
	<path d="M277.757,230.143l15.277,16.054c0.377,0.396,0.597,0.765,0.662,1.104c0.064,0.34-0.013,0.724-0.231,1.15l0.571,0.6
		l5.97-5.681l-0.571-0.601c-0.459,0.194-0.851,0.252-1.176,0.172c-0.325-0.078-0.676-0.315-1.052-0.711l-21.029-22.098
		c-0.364-0.383-0.577-0.737-0.641-1.066c-0.063-0.329,0.015-0.718,0.23-1.166l-0.571-0.601l-7.228,6.878l0.571,0.601
		c0.527-0.381,1.04-0.31,1.537,0.213c0.255,0.268,0.544,0.806,0.868,1.614l7.311,18.261l-18.024-8.502
		c-0.446-0.207-0.79-0.438-1.032-0.693c-0.521-0.548-0.636-1.107-0.343-1.678l-0.571-0.6l-7.358,7.002l0.571,0.601
		c0.459-0.193,0.851-0.251,1.176-0.172c0.326,0.078,0.67,0.31,1.033,0.691l21.03,22.099c0.375,0.395,0.595,0.757,0.657,1.086
		c0.063,0.329-0.014,0.718-0.229,1.165l0.57,0.601l5.61-5.339l-0.571-0.6c-0.459,0.193-0.852,0.25-1.177,0.171
		s-0.677-0.317-1.054-0.713l-15.277-16.054l24.244,11.329L277.757,230.143z"/>
	<g>
		<linearGradient id="XMLID_59_" gradientUnits="userSpaceOnUse" x1="197.522" y1="168.4336" x2="197.522" y2="97.1094">
			<stop  offset="0.1274" style="stop-color:#450F0F"/>
			<stop  offset="0.9953" style="stop-color:#BD3635"/>
		</linearGradient>
		<path opacity="0.5" fill-rule="evenodd" clip-rule="evenodd" fill="url(#XMLID_59_)" d="M103.573,110.813
			c0,0,13.333,53.334,30,55.334s58.666,10.666,65.333-34.667c6.667-45.333,12,6,12,6s11.334,37.333,46.667,30s34-51.333,34-51.333
			s-9.333-15.333-41.333-16s-40.666,3.333-44,5.333s-28.001-10.667-53.334-8S101.573,102.146,103.573,110.813z"/>
		<linearGradient id="XMLID_60_" gradientUnits="userSpaceOnUse" x1="194.9497" y1="174.1143" x2="194.9497" y2="91.8862">
			<stop  offset="0.1274" style="stop-color:#5D4D1A"/>
			<stop  offset="0.9953" style="stop-color:#000000"/>
		</linearGradient>
		<path fill-rule="evenodd" clip-rule="evenodd" fill="url(#XMLID_60_)" d="M88.585,106.818c0.001,0.018,14.338-6.365,34.29-10.951
			c9.974-2.285,20.951-3.426,32.603-3.894c2.316-0.093,6.793-0.097,7.492-0.081c2.929,0.068,6.338,0.477,9.248,0.756
			c5.82,0.561,12.766,0.852,18.295,2.408c0.001,0.008,6.432,3.201,13.649,4.004c2.092,0.232,4.324,0.413,6.378,0.107
			c1.617-0.241,3.062-0.844,4.653-1.545c4.567-2.014,18.486-3.826,34.195-2.404c15.685,1.393,31.185,4.904,50.99,14.707
			c1.764,0.646,3.062,2.545,3.335,4.181c0.034,0.205,0.055,0.413,0.06,0.622c0.003,0.105,0.002,0.211-0.003,0.317
			c-0.004,0.106-0.013,0.213-0.024,0.319c-0.05,0.429-0.16,0.861-0.335,1.291c-0.352,0.859-0.966,1.707-1.878,2.477
			c-2.462,2.066-6.722,4.156-6.72,4.159c-2.083,6.836-4.136,13.774-6.063,21.094c-2.157,6.328-4.006,11.299-6.364,15.151
			c-2.462,4.021-5.457,6.824-8.889,8.679c-6.688,3.718-16.691,3.561-30.664,4.157c-27.95,0.656-32.836-29.241-32.807-28.987
			c-2.592-5.938-5.301-5.414-7.076-3.507c-1.605,1.725-2.403,4.58-2.452,4.816c-2.508,15.658-10.156,23.333-20.954,26.864
			c-5.397,1.786-11.607,2.467-18.398,2.547c-0.849,0.01-1.707,0.011-2.574,0.003c-0.866-0.008-1.742-0.024-2.625-0.048
			c-1.767-0.047-3.565-0.124-5.393-0.223c-3.655-0.198-7.426-0.483-11.28-0.797c-13.631-1.176-22.306-9.759-28.145-20.66
			c-7.503-14.01-10.088-30.911-10.004-30.911c0,0-2.534-1.08-9.29,0.863c0,0-2.654-3.365-4.344-7.083
			c-0.422-0.93-0.784-1.882-1.03-2.81c-0.123-0.465-0.216-0.922-0.273-1.369c-0.028-0.223-0.048-0.443-0.058-0.66
			c-0.009-0.216-0.009-0.429,0.002-0.637C86.225,108.106,86.65,107.557,88.585,106.818L88.585,106.818z M115.614,107.127
			c4.767-3.24,14.086-4.97,22.277-5.792c20.894-2.103,40.271,1.403,40.268,1.39c0.034,0.021,18.784-0.896,15.905,28.526
			c-0.723,8.017-2.546,13.813-5.066,18.587c-9.37,17.752-29.712,15.515-48,14.343c-6.98-0.423-12.386-4.224-16.532-10.014
			c-9.689-13.531-12.491-35.779-12.403-35.772C111.323,114.352,112.876,108.985,115.614,107.127z M280.874,109.766
			c9.802,4.255,6.324,15.457,2.683,30.384c-3.584,15.14-11.56,19.729-14.515,20.039c-2.945,0.458-22.28,6.737-39.999-1.834
			c-17.791-8.678-15.771-35.856-14.323-40.319c0.849-2.789,1.391-7.672,3.669-9.698c3.514-3.139,13.698-4.272,13.701-4.268
			C245.857,102.677,271.082,105.584,280.874,109.766z"/>
			
			
			<path id="path1" d="M0,0 l0,-5"
			fill="none" stroke="blue" stroke-width="1"  />
			<animateMotion id="trigger" begin="indefinite" dur="0.4s" repeatCount="2" >
           <mpath xlink:href="#path1"/>
        </animateMotion>
			
	</g>
	<g>
		<path opacity="0.4" fill-rule="evenodd" clip-rule="evenodd" fill="#FFFFFF" d="M123.297,142.203
			c-0.032,0.036,26.186-22.863,66.438-17.141c-0.012-0.016,3.728-12.021-7.071-16.057c-8.943-3.512-67.039-6.58-65.143,8.898
			C119.401,133.231,120.733,138.351,123.297,142.203L123.297,142.203z"/>
		<path opacity="0.4" fill-rule="evenodd" clip-rule="evenodd" fill="#FFFFFF" d="M218.744,134.838
			c-0.01-0.059-5.293-24.047,10.314-25.945c15.508-2.023,55.426,0.869,52.998,9.766c-0.752,1.766-1.142,4.137-1.889,5.916
			c0.073,0.125-35.988-9.522-60.943,10.864L218.744,134.838z"/>
	</g>
	<path fill="#761416" d="M37.023,189.168c-0.508-0.193-0.81-0.416-0.906-0.67c-0.06-0.156-0.032-0.656,0.084-1.499
		c0.402-2.481,0.564-4.486,0.487-6.014c-0.078-1.527-0.415-3.081-1.013-4.659c-1.422-3.754-3.715-6.105-6.878-7.055
		c-2.403-0.727-5.028-0.551-7.875,0.527c-1.729,0.654-3.152,1.518-4.271,2.588c-1.245,1.188-2.03,2.47-2.355,3.846
		c-0.235,0.97-0.326,1.885-0.273,2.747c0.053,0.86,0.302,2.274,0.745,4.24l0.662,2.931c0.429,1.972,0.596,3.326,0.502,4.063
		c-0.141,1.059-0.768,1.799-1.879,2.22c-0.736,0.278-1.513,0.359-2.333,0.244c-0.82-0.117-1.553-0.411-2.199-0.882
		c-1.164-0.854-2.049-2.08-2.656-3.682c-0.557-1.469-0.8-3.152-0.729-5.051c0.07-1.899,0.433-3.42,1.09-4.563
		c0.428-0.755,1.013-1.271,1.752-1.552c0.066-0.025,0.173-0.065,0.321-0.122l0.147-0.654l-9.275,0.457L0,177.293
		c0.49,0.2,0.765,0.378,0.824,0.534c0.05,0.133-0.012,0.617-0.184,1.453c-0.937,3.989-0.788,7.615,0.449,10.879
		c0.688,1.817,1.637,3.406,2.847,4.766c1.611,1.826,3.446,2.928,5.504,3.305c2.263,0.423,4.576,0.188,6.94-0.708
		c1.493-0.565,2.807-1.336,3.94-2.309c1.133-0.974,1.947-2.021,2.441-3.146c0.466-1.1,0.715-2.251,0.748-3.454
		c0.032-1.204-0.148-2.695-0.541-4.475l-0.68-2.986c-0.458-2.002-0.682-3.336-0.672-4c0.035-1.295,0.684-2.181,1.947-2.659
		c0.771-0.292,1.567-0.343,2.39-0.152c0.822,0.191,1.532,0.58,2.129,1.166c0.795,0.813,1.435,1.858,1.918,3.134
		c1.095,2.893,1.03,5.797-0.196,8.714c-0.376,0.942-0.843,1.519-1.402,1.73c-0.099,0.037-0.233,0.081-0.402,0.131l-0.203,0.655
		l9.044-0.056L37.023,189.168z"/>
	<path fill="#761416" d="M46.194,219.734l-18.287,12.338c-0.451,0.304-0.848,0.46-1.192,0.468s-0.707-0.13-1.088-0.413l-0.69,0.465
		l4.595,6.811l0.69-0.466c-0.113-0.48-0.103-0.874,0.03-1.18c0.133-0.307,0.425-0.612,0.877-0.917l25.271-17.05
		c0.437-0.295,0.822-0.447,1.156-0.455c0.334-0.009,0.702,0.129,1.106,0.414l0.69-0.467l-5.571-8.256l-0.69,0.466
		c0.287,0.582,0.132,1.075-0.465,1.479c-0.307,0.206-0.885,0.403-1.734,0.589l-19.235,4.191l11.404-16.365
		c0.278-0.404,0.563-0.705,0.854-0.901c0.626-0.424,1.197-0.442,1.71-0.059l0.69-0.466l-5.686-8.428l-0.689,0.466
		c0.112,0.481,0.102,0.875-0.031,1.181c-0.133,0.307-0.418,0.606-0.855,0.901l-25.271,17.05c-0.452,0.305-0.844,0.462-1.178,0.471
		c-0.333,0.008-0.702-0.13-1.106-0.414l-0.69,0.466l4.332,6.42l0.69-0.466c-0.113-0.48-0.103-0.874,0.029-1.18
		s0.424-0.61,0.875-0.915l18.286-12.337l-15.134,21.933L46.194,219.734z"/>
	<path fill="#761416" d="M39.789,247.527c-0.326,0.071-0.712,0.005-1.159-0.197l-0.6,0.592l5.778,5.851l0.6-0.593
		c-0.201-0.429-0.263-0.811-0.186-1.146c0.077-0.336,0.309-0.694,0.697-1.078l21.698-21.43c0.375-0.37,0.729-0.595,1.061-0.672
		s0.715-0.008,1.15,0.207l0.6-0.593l-5.778-5.85l-0.6,0.593c0.197,0.449,0.258,0.837,0.183,1.161
		c-0.075,0.325-0.3,0.673-0.675,1.043l-21.699,21.431C40.471,247.229,40.114,247.456,39.789,247.527z"/>
	<path fill="#761416" d="M77.757,239.409c0.324-0.439,0.643-0.722,0.959-0.849s0.708-0.117,1.173,0.028l0.508-0.69l-6.63-4.886
		l-0.508,0.69c0.267,0.415,0.389,0.789,0.367,1.121c-0.022,0.333-0.195,0.719-0.518,1.157l-18.058,24.502
		c-0.324,0.438-0.641,0.717-0.952,0.838c-0.311,0.119-0.705,0.113-1.18-0.019l-0.509,0.69l18.694,13.776
		c0.322,0.236,0.493,0.515,0.514,0.834c0.021,0.319-0.103,0.771-0.372,1.354l0.51,0.375l5.505-7.47l-0.51-0.376
		c-0.477,0.43-0.871,0.683-1.182,0.757c-0.312,0.074-0.627-0.007-0.949-0.243l-13.054-9.621L77.757,239.409z"/>
	<path fill="#761416" d="M100.907,273.056c0.343,0.175,0.549,0.424,0.616,0.743c0.068,0.321,0.019,0.782-0.146,1.387l0.558,0.285
		l4.131-8.076l-0.559-0.285c-0.402,0.503-0.75,0.817-1.045,0.942c-0.294,0.125-0.614,0.099-0.957-0.076l-9.513-4.866l3.891-7.606
		l14.68,7.509c0.344,0.176,0.55,0.422,0.62,0.737s0.02,0.78-0.148,1.394l0.558,0.284l4.236-8.282l-0.558-0.284
		c-0.398,0.495-0.746,0.806-1.043,0.935s-0.619,0.105-0.962-0.07l-20.935-10.708l-0.39,0.763c0.338,0.371,0.524,0.723,0.56,1.056
		c0.035,0.334-0.072,0.743-0.319,1.228l-13.856,27.091c-0.248,0.484-0.517,0.811-0.808,0.978c-0.291,0.167-0.686,0.222-1.184,0.164
		l-0.391,0.763l21.346,10.919c0.344,0.176,0.552,0.419,0.624,0.732c0.072,0.313,0.021,0.778-0.151,1.398l0.558,0.286l4.236-8.282
		l-0.559-0.286c-0.402,0.504-0.75,0.817-1.045,0.942c-0.295,0.124-0.614,0.099-0.958-0.077l-15.092-7.719l4.491-8.781
		L100.907,273.056z"/>
	<path fill="#761416" d="M145.193,270.602c1.024-1.211,1.793-2.007,2.308-2.387s1.065-0.559,1.654-0.534l0.182-0.811l-9.961-2.235
		l-0.182,0.811c0.371,0.173,0.637,0.427,0.8,0.761c0.163,0.333,0.2,0.698,0.111,1.092c-0.081,0.36-0.493,0.988-1.235,1.885
		l-6.87,8.35l-2.515-10.455c-0.28-1.162-0.386-1.897-0.316-2.207c0.196-0.874,0.736-1.312,1.621-1.312l0.182-0.81l-10.165-2.281
		l-0.182,0.81c0.542,0.23,0.964,0.627,1.267,1.19c0.303,0.563,0.658,1.611,1.066,3.145l4.727,17.843l-2.692,11.995
		c-0.12,0.532-0.306,0.914-0.558,1.146c-0.253,0.231-0.627,0.381-1.124,0.45l-0.182,0.81l8.07,1.812l0.182-0.81
		c-0.405-0.271-0.666-0.564-0.783-0.878c-0.117-0.315-0.115-0.738,0.004-1.271l2.692-11.996L145.193,270.602z"/>
	<path fill="#761416" d="M173.081,283.622c-0.087,0.64-0.233,1.082-0.438,1.327c-0.206,0.246-0.513,0.373-0.921,0.382l-4.862,0.102
		c-0.396,0.009-0.705-0.109-0.927-0.355c-0.223-0.245-0.4-0.677-0.532-1.295l-0.63,0.014l0.19,9.09l0.63-0.014
		c0.103-0.614,0.257-1.051,0.464-1.31c0.206-0.258,0.502-0.391,0.887-0.399l4.738-0.099c0.397-0.009,0.702,0.108,0.913,0.349
		c0.21,0.241,0.386,0.675,0.528,1.302l0.63-0.014l-0.19-9.09L173.081,283.622z"/>
	<path fill="#761416" d="M221.027,291.466c0.146,0.507,0.17,0.927,0.068,1.258s-0.348,0.636-0.742,0.914l0.233,0.81l7.95-2.287
		l-0.233-0.811c-0.499-0.039-0.874-0.169-1.127-0.389c-0.253-0.221-0.452-0.584-0.598-1.091l-8.437-29.32
		c-0.146-0.507-0.171-0.921-0.073-1.241c0.097-0.32,0.347-0.63,0.748-0.929l-0.233-0.81l-7.95,2.287l0.233,0.811
		c0.494,0.022,0.868,0.147,1.123,0.375c0.256,0.229,0.455,0.596,0.602,1.102l3.205,11.138l-14.61,4.204l-3.205-11.138
		c-0.146-0.507-0.171-0.924-0.075-1.253c0.094-0.328,0.345-0.634,0.751-0.915l-0.233-0.811l-7.95,2.288l0.233,0.81
		c0.499,0.04,0.874,0.17,1.127,0.39c0.253,0.221,0.452,0.584,0.598,1.091l8.437,29.32c0.145,0.507,0.17,0.92,0.072,1.241
		c-0.098,0.32-0.346,0.63-0.748,0.928l0.233,0.811l7.95-2.288l-0.232-0.81c-0.482-0.026-0.854-0.152-1.115-0.38
		c-0.262-0.227-0.465-0.594-0.611-1.102l-3.592-12.483l14.61-4.203L221.027,291.466z"/>
	<path fill="#761416" d="M227.046,262.545c0.293,3.267,1.327,6.467,3.102,9.601c1.213,2.14,2.654,4.019,4.327,5.635
		c1.898,1.833,3.922,3.181,6.071,4.042c4.019,1.621,8.016,1.306,11.99-0.946c5.301-3.002,7.676-7.699,7.126-14.092
		c-0.281-3.272-1.271-6.406-2.968-9.402c-2.771-4.893-6.271-8.18-10.502-9.861c-4.019-1.621-8.033-1.296-12.042,0.975
		C228.858,251.615,226.49,256.298,227.046,262.545L227.046,262.545z M244.202,253.329c2.878,1.055,5.322,3.354,7.33,6.9
		c0.823,1.452,1.418,2.973,1.784,4.562c0.405,1.789,0.476,3.455,0.209,5c-0.443,2.592-1.77,4.514-3.979,5.766
		c-2.211,1.252-4.547,1.404-7.009,0.457c-2.914-1.115-5.331-3.37-7.253-6.763c-1.922-3.394-2.612-6.626-2.07-9.698
		c0.453-2.599,1.774-4.518,3.962-5.757C239.403,252.575,241.745,252.419,244.202,253.329L244.202,253.329z"/>
	<path fill="#761416" d="M276.717,229.902l15.277,16.054c0.377,0.396,0.597,0.765,0.662,1.104c0.064,0.34-0.013,0.724-0.231,1.15
		l0.571,0.601l5.97-5.682l-0.571-0.6c-0.459,0.193-0.851,0.251-1.176,0.172s-0.676-0.316-1.052-0.711l-21.029-22.099
		c-0.364-0.382-0.577-0.737-0.641-1.066c-0.063-0.329,0.015-0.717,0.23-1.166l-0.57-0.601l-7.229,6.878l0.571,0.601
		c0.527-0.381,1.04-0.31,1.537,0.213c0.255,0.268,0.544,0.806,0.868,1.614l7.311,18.261l-18.024-8.502
		c-0.446-0.207-0.79-0.438-1.032-0.693c-0.521-0.548-0.636-1.106-0.343-1.677l-0.571-0.601l-7.358,7.002l0.571,0.601
		c0.459-0.193,0.851-0.251,1.176-0.172c0.326,0.079,0.67,0.31,1.033,0.691l21.03,22.099c0.376,0.395,0.595,0.757,0.657,1.086
		c0.063,0.329-0.014,0.718-0.229,1.166l0.57,0.6l5.61-5.339l-0.57-0.6c-0.46,0.193-0.853,0.251-1.178,0.171
		c-0.325-0.079-0.677-0.316-1.054-0.713l-15.277-16.054l24.244,11.329L276.717,229.902z"/>
	<path d="M303.714,210.35c0.211-0.324,0.479-0.504,0.805-0.539c0.326-0.035,0.781,0.061,1.365,0.286l0.331-0.511l-7.62-4.949
		l-0.33,0.51c0.458,0.452,0.733,0.832,0.826,1.139c0.094,0.307,0.034,0.623-0.177,0.947l-5.846,9l-7.17-4.657l9.003-13.861
		c0.211-0.324,0.478-0.505,0.799-0.543c0.321-0.037,0.778,0.06,1.37,0.29l0.332-0.51l-7.8-5.066l-0.332,0.51
		c0.45,0.446,0.725,0.825,0.821,1.135c0.098,0.309,0.04,0.626-0.171,0.95L277.1,214.221l0.72,0.468
		c0.403-0.298,0.772-0.447,1.107-0.447c0.336,0,0.731,0.148,1.188,0.445l25.542,16.59c0.457,0.298,0.753,0.6,0.89,0.905
		c0.136,0.307,0.15,0.704,0.042,1.193l0.72,0.468l13.076-20.131c0.211-0.324,0.475-0.507,0.793-0.546
		c0.318-0.04,0.777,0.058,1.377,0.293l0.331-0.51l-7.801-5.066l-0.331,0.51c0.459,0.452,0.734,0.831,0.828,1.138
		c0.093,0.307,0.034,0.622-0.177,0.946l-9.257,14.252l-8.28-5.378L303.714,210.35z"/>
	<path fill="#761416" d="M302.674,210.11c0.211-0.325,0.479-0.505,0.805-0.54c0.326-0.034,0.781,0.061,1.365,0.286l0.331-0.51
		l-7.62-4.95l-0.33,0.51c0.458,0.452,0.733,0.832,0.826,1.139c0.094,0.307,0.034,0.623-0.177,0.947l-5.846,9.001l-7.17-4.658
		l9.003-13.861c0.212-0.324,0.478-0.505,0.799-0.543c0.321-0.037,0.778,0.06,1.37,0.29l0.332-0.51l-7.8-5.066l-0.332,0.511
		c0.45,0.446,0.725,0.824,0.821,1.134c0.098,0.31,0.04,0.626-0.171,0.951l-12.821,19.74l0.72,0.468
		c0.403-0.298,0.772-0.447,1.107-0.447c0.336,0,0.731,0.149,1.188,0.446l25.542,16.59c0.457,0.297,0.753,0.599,0.89,0.904
		c0.136,0.307,0.15,0.705,0.042,1.194l0.721,0.468l13.075-20.131c0.211-0.325,0.475-0.507,0.793-0.547
		c0.318-0.039,0.777,0.058,1.377,0.293l0.331-0.51l-7.801-5.066l-0.331,0.51c0.459,0.452,0.734,0.831,0.828,1.138
		c0.093,0.307,0.034,0.622-0.177,0.947l-9.257,14.251l-8.28-5.378L302.674,210.11z"/>
</g>
<script type="text/javascript">
 <![CDATA[ 
function beginfunc(){
var trigger = document.getElementById("trigger");
trigger.beginElement();}

function beginfunc2(){
var trigger = document.getElementById("trigger");
trigger.beginElement();}
 
 (function loop() {
    var rand = Math.round(Math.random() * (8000 - 500)) + 500;
    setTimeout(function() {
            beginfunc();
            loop();  
    }, rand);
}());

]]>
</script>
</svg>

